 <svg xmlns="http://www.w3.org/2000/svg" width="21" height="20" fill="none" viewBox="0 0 21 20">
            <path fill="#EA4335" d="M6.347 8.448c.325-.983.952-1.839 1.791-2.444.84-.606 1.85-.93 2.885-.928 1.174 0 2.235.416 3.068 1.098l2.425-2.424c-1.477-1.288-3.371-2.083-5.493-2.083-3.285 0-6.112 1.873-7.472 4.618l2.796 2.163z"/>
            <path fill="#34A853" d="M13.829 14.175c-.757.489-1.718.75-2.806.75-1.031.001-2.037-.321-2.875-.922-.838-.601-1.465-1.45-1.794-2.428l-2.805 2.13c.688 1.393 1.754 2.565 3.075 3.383 1.321.819 2.845 1.25 4.4 1.245 2.036 0 3.982-.724 5.44-2.083l-2.634-2.075h-.001z"/>
            <path fill="#4A90E2" d="M16.463 16.25c1.525-1.422 2.514-3.539 2.514-6.25 0-.493-.076-1.023-.189-1.515h-7.765v3.22h4.47c-.22 1.083-.813 1.92-1.664 2.47l2.634 2.075z"/>
            <path fill="#FBBC05" d="M6.354 11.575c-.17-.508-.256-1.04-.255-1.575 0-.543.086-1.065.248-1.552L3.55 6.285C2.979 7.439 2.684 8.71 2.69 10c0 1.333.309 2.59.859 3.705l2.805-2.13z"/>
        </svg>