<svg width="20" height="20" viewBox="0 0 20 20" fill="none" xmlns="http://www.w3.org/2000/svg">
    <g clip-path="url(#rlgv8cbk4a)">
        <path d="M2.554 3.333v13.334a9.956 9.956 0 0 1 0-13.334z" fill="#D42B1E"/>
        <path d="M5.895 18.894a9.749 9.749 0 0 1-3.22-2.324V3.43a9.75 9.75 0 0 1 14.391 0v13.14a9.75 9.75 0 0 1-11.171 2.324z" fill="#fff" stroke="#E0E0E0" stroke-width=".5"/>
        <path d="M20 10a9.913 9.913 0 0 1-2.684 6.667V3.333A9.913 9.913 0 0 1 20 10zM12.987 12.294l2.814-2.251-.65-.303.52-1.905-1.688.39a.217.217 0 0 1-.26 0v-.78l-1.645 1.213a.223.223 0 0 1-.39-.217l.606-3.073-.909.476a.26.26 0 0 1-.346 0L10 3.723 8.961 5.627a.26.26 0 0 1-.346 0l-.91-.476.607 3.074a.291.291 0 1 1-.39.433L6.537 7.143v.779a.216.216 0 0 1-.26 0l-1.948-.303.52 1.905-.52.519 2.814 2.251a.433.433 0 0 1 0 .433l-.26.736 2.684-.476.26.216v2.944h.52v-3.16l2.64.476v-1.169z" fill="#D42B1E"/>
    </g>
    <defs>
        <clipPath id="rlgv8cbk4a">
            <path fill="#fff" d="M0 0h20v20H0z"/>
        </clipPath>
    </defs>
</svg>
