<svg width="12" height="12" viewBox="0 0 12 12" fill="none" xmlns="http://www.w3.org/2000/svg">
    <path d="M6.007 1v10a5 5 0 1 0 0-10z" fill="#fff" fill-opacity=".4"/>
    <path fill-rule="evenodd" clip-rule="evenodd" d="M4.314 1.981a.349.349 0 0 0-.248-.651 4.97 4.97 0 0 0-.26.107.349.349 0 0 0 .286.637 4.27 4.27 0 0 1 .222-.093zm-1.42.894a.349.349 0 0 0-.48-.506 5.02 5.02 0 0 0-.198.198.349.349 0 1 0 .507.479c.056-.058.112-.115.17-.17zm-.972 1.369a.349.349 0 1 0-.637-.286 4.97 4.97 0 0 0-.107.26.349.349 0 0 0 .651.249c.029-.076.06-.15.093-.223zM1.549 5.88a.349.349 0 0 0-.697-.02 5.087 5.087 0 0 0 0 .281.349.349 0 1 0 .697-.019 4.393 4.393 0 0 1 0-.242zm.28 1.655a.349.349 0 0 0-.651.25c.033.087.069.173.107.258a.349.349 0 0 0 .637-.285 4.279 4.279 0 0 1-.093-.223zm.894 1.42a.349.349 0 1 0-.507.48c.065.068.13.134.199.198a.349.349 0 0 0 .479-.507 4.334 4.334 0 0 1-.17-.17zm1.369.973a.349.349 0 0 0-.286.637c.086.038.172.074.26.107a.349.349 0 0 0 .248-.652 4.27 4.27 0 0 1-.222-.092zm1.533-2.62a1 1 0 0 1 0-1.854V3.376a.375.375 0 1 1 .75 0v2.078a1 1 0 0 1 0 1.855v1.067a.375.375 0 0 1-.75 0V7.31zm.625-.927a.25.25 0 1 1-.5 0 .25.25 0 0 1 .5 0z" fill="#fff"/>
</svg>
