<svg width="20" height="20" viewBox="0 0 20 20" fill="none" xmlns="http://www.w3.org/2000/svg">
    <g clip-path="url(#9vdr5t73ba)">
        <path d="M17.962 3.925C16.113 1.547 13.245 0 10.038 0 6.83 0 3.887 1.547 2.075 3.925c-.113.15-.226.34-.377.49-.113.151-.226.34-.34.528a1.53 1.53 0 0 0-.188.34c0 .075-.076.113-.076.189-.075.15-.15.302-.226.49-.076.151-.113.264-.189.415-.15.378-.302.793-.377 1.208 0 .15-.076.264-.076.415-.075.34-.113.68-.15.981 0 .227-.038.453-.038.717v.34c0 2.302.754 4.415 2.075 6.075 1.85 2.378 4.717 3.925 7.925 3.925a9.992 9.992 0 0 0 7.924-3.925c1.283-1.698 2.076-3.811 2.076-6.075 0-2.264-.755-4.415-2.076-6.076v-.037z" fill="#032774"/>
        <path d="m2.038 7.962-2 1.02c0-.34.075-.68.15-.982h1.85v-.038zM4.415 3.925v1.849L1.698 4.415s.227-.34.377-.49h2.34zM2.038 5.962H.868s.15-.34.226-.49l.944.49zM11.51 5.962V4.604L8.83 5.962h2.68zM10.15 3.925H6.454v1.849l3.698-1.85zM11.51 9.32V7.963H8.83l2.68 1.359zM.717 10h3.698V8.15L.717 10zM6.453 10h3.698L6.453 8.15V10z" fill="#032774"/>
        <path d="M11.51 4.604 8.791 5.962h2.717V8H8.792L11.51 9.36v.226L8.34 8h-.905l4.075 2.038h-1.358l-3.698-1.85v1.85H4.415v-1.85l-3.698 1.85H.264L4.34 8h-.906L0 9.66c0-.226 0-.452.038-.717l2-.98H.188s.076-.265.076-.416c.113-.415.227-.83.378-1.207.037-.151.113-.264.188-.415H2l-.943-.491s.075-.113.075-.189l1.32.642h.906L1.321 4.868s.226-.34.34-.528l2.716 1.358V3.85h2.038V5.7l3.698-1.85h.453L6.491 5.887h.905l4.076-2.038v.68l.037.075z" fill="#fff"/>
        <path d="M3.396 5.962h-.905L1.17 5.321s.113-.227.188-.34L3.396 6v-.038zM7.434 7.962 11.509 10v-.453L8.377 7.962h-.943zM6.566 5.963h.906l4.037-2.038h-.905L6.566 5.963zM4.302 7.962.264 10H0v-.34l3.396-1.698h.906z" fill="#DF0333"/>
        <path d="M11.51 6.34v1.207H6.037V10H4.83V7.547H.302c.113-.415.226-.83.377-1.207H4.83V3.887h1.208V6.34h5.471z" fill="#DF0333"/>
        <path d="m5.434 13.887-.792.792.15-1.094-1.132-.114.944-.603L4 11.924l1.057.378.377-1.057.34 1.057 1.094-.378-.642.944.982.604-1.133.113.151 1.094-.792-.792zM15.396 14.453l-.377.415.075-.566-.528-.038.453-.264-.302-.49.528.188.151-.49.189.49.49-.189-.264.491.453.264-.528.038.038.566-.378-.415zM13.245 9.66l-.377.378.075-.528-.566-.076.49-.264-.3-.453.49.189.188-.529.189.529.49-.189-.301.453.49.264-.566.076.076.528-.378-.378zM15.396 6.34l-.377.415.075-.566-.528-.038.453-.302-.302-.453.528.189.151-.49.189.49.49-.189-.264.453.453.302-.566.038.076.566-.378-.415zM18.113 8.83l-.377.378.075-.529-.566-.037.49-.302-.301-.453.49.189.19-.529.15.529.529-.189-.302.453.452.302-.528.037.076.529-.378-.378zM16.642 10.717l-.34.226.113-.377-.302-.226h.378l.15-.34.114.34h.377l-.302.226.113.377-.302-.226z" fill="#fff"/>
    </g>
    <rect x=".25" y=".25" width="19.5" height="19.5" rx="9.75" stroke="#E0E0E0" stroke-width=".5"/>
    <defs>
        <clipPath id="9vdr5t73ba">
            <rect width="20" height="20" rx="10" fill="#fff"/>
        </clipPath>
    </defs>
</svg>
