<svg width="20" height="20" viewBox="0 0 20 20" fill="none" xmlns="http://www.w3.org/2000/svg">
    <g clip-path="url(#aknesf8t0a)">
        <path d="M6.968.49v19.02C2.938 18.23 0 14.427 0 9.982 0 5.537 2.938 1.771 6.968.49z" fill="red"/>
        <path d="M19.435 13.334A9.997 9.997 0 0 1 10.019 20a9.245 9.245 0 0 1-3.051-.49v-6.177h12.467z" fill="#000"/>
        <path d="M19.435 6.667H6.968V.49C7.91.188 8.964 0 10.018 0a9.997 9.997 0 0 1 9.417 6.667z" fill="#00732F"/>
        <path d="M20 9.981c0 1.168-.188 2.298-.565 3.315H6.968v-6.63h12.467A9.729 9.729 0 0 1 20 9.982z" fill="#fff"/>
    </g>
    <rect x=".25" y=".25" width="19.5" height="19.5" rx="9.75" stroke="#E0E0E0" stroke-width=".5"/>
    <defs>
        <clipPath id="aknesf8t0a">
            <rect width="20" height="20" rx="10" fill="#fff"/>
        </clipPath>
    </defs>
</svg>