<svg width="20" height="20" viewBox="0 0 20 20" fill="none" xmlns="http://www.w3.org/2000/svg">
    <g clip-path="url(#ahhzwvirja)">
        <path d="M17.962 3.925C16.113 1.547 13.245 0 10.038 0a10.066 10.066 0 0 0-7.963 3.925c-.188.226-.34.452-.49.717-.113.188-.226.34-.302.528-.075.113-.113.226-.189.377 0 .076-.075.113-.075.189C.98 5.81.943 5.925.906 6c-.076.15-.114.264-.189.415-.15.377-.302.793-.377 1.208 0 .15-.076.264-.076.415-.038.226-.075.453-.113.717 0 .226-.038.453-.075.717v.603c0 2.302.754 4.416 2.075 6.076 1.849 2.377 4.717 3.925 7.925 3.925A9.992 9.992 0 0 0 18 16.15c1.283-1.698 2.076-3.811 2.076-6.075C20.076 7.81 19.32 5.66 18 4l-.038-.075z" fill="#00247D"/>
        <path d="M1.51 7.962.075 8.68c0-.226.075-.49.113-.717h1.32zM3.85 3.924v1.85L1.546 4.64c.151-.226.34-.49.49-.717H3.85zM1.51 5.962H.867s.075-.188.113-.264l.528.264zM10.981 5.962V4.604L8.264 5.962h2.717zM9.585 3.924H5.887v1.85l3.698-1.85zM10.981 9.32V7.963H8.264l2.717 1.359zM.15 10h3.737V8.15L.15 10zM5.887 10h3.698L5.887 8.15V10z" fill="#00247D"/>
        <path d="M10.981 4.604 8.264 5.962h2.717V8H8.264l2.717 1.358v.227L7.811 8h-.905l4.075 2.038H9.623l-3.698-1.85v1.85H3.887v-1.85L.15 10H0v-.151l3.774-1.887h-.906L0 9.396c0-.226 0-.49.075-.717l1.397-.717H.189s.075-.264.075-.415c.113-.415.227-.83.378-1.207.037-.151.113-.265.188-.416h.642L.943 5.66s.076-.113.076-.188l.868.452h.905l-1.584-.792s.188-.34.301-.528l2.302 1.132v-1.85H5.85v1.85l3.698-1.85H10L5.925 5.925h.905l4.076-2.037v.679l.075.038z" fill="#fff"/>
        <path d="M2.868 5.962h-.906l-.868-.453.189-.377 1.585.792v.038zM6.906 7.962 10.943 10h.038v-.453l-3.17-1.585h-.905zM6 5.962h.906l4.075-2.038h-.943L6 5.962zM3.774 7.962 0 9.85v-.453l2.83-1.434H3.774z" fill="#CB142A"/>
        <path d="M10.981 6.34v1.207h-5.51V10H4.265V7.547H.302c.113-.415.226-.83.377-1.207h3.585V3.887h1.208V6.34h5.509zM15.623 14.037l-.529.378.189-.642-.528-.377.679-.038.189-.604.226.604.642.038-.529.377.227.642-.566-.378z" fill="#CB142A"/>
        <path d="M16.68 13.32h-.793l-.264-.754-.264.755h-.793l.604.49-.227.755.642-.453.641.453L16 13.81l.604-.453.075-.037zm-1.02.642-.452.302.15-.49-.415-.302h.529l.188-.529.19.49h.527l-.415.34.151.491-.453-.302z" fill="#fff"/>
        <path d="m15.623 6.68-.49.339.188-.566-.49-.378h.603l.189-.566.188.566h.604l-.453.378.151.566-.49-.34z" fill="#CB142A"/>
        <path d="M16.566 6.038h-.717l-.226-.68-.227.68h-.717l.566.452-.188.68.603-.415.604.415-.226-.68.566-.415-.038-.037zm-.943.566-.378.264.151-.453-.377-.264h.453l.15-.453.152.453h.452l-.377.302.151.453-.377-.265v-.037z" fill="#fff"/>
        <path d="m12.793 9.51-.491.339.189-.566-.491-.34.604-.038.189-.566.188.566.604.038-.453.34.151.566-.49-.34z" fill="#CB142A"/>
        <path d="M13.774 8.868h-.717l-.227-.717-.226.68h-.717l.566.452-.227.68.604-.416.604.415-.226-.68.566-.452v.038zm-.944.566-.377.264.15-.453-.377-.302h.491l.15-.452.152.452h.49l-.377.302.151.453-.377-.264h-.076z" fill="#fff"/>
        <path d="m18.038 8.754-.415.302.15-.49-.415-.34h.491l.189-.49.188.49h.491l-.415.34.15.49-.414-.302z" fill="#CB142A"/>
        <path d="M18.906 8.188h-.642l-.226-.641-.227.604h-.641l.528.415-.189.604.529-.378.528.378-.189-.604.529-.378zm-.868.49-.34.227.113-.377-.302-.226h.415l.114-.378.113.378h.415l-.302.264.113.377-.34-.226v-.038z" fill="#fff"/>
    </g>
    <rect x=".25" y=".25" width="19.5" height="19.5" rx="9.75" stroke="#E0E0E0" stroke-width=".5"/>
    <defs>
        <clipPath id="ahhzwvirja">
            <rect width="20" height="20" rx="10" fill="#fff"/>
        </clipPath>
    </defs>
</svg>
