<svg width="20" height="20" viewBox="0 0 20 20" fill="none" xmlns="http://www.w3.org/2000/svg">
    <g clip-path="url(#p0mnj4hh3a)">
        <path d="M20 9.981H0C0 4.482 4.482 0 9.981 0c5.5 0 9.981 4.482 9.981 9.981H20z" fill="#D43A3D"/>
        <path d="M20 9.981c0 5.499-4.482 9.981-9.981 9.981C4.519 19.962 0 15.518 0 9.981h20zM5.838 5.01a3.532 3.532 0 0 1 3.39-3.54 3.318 3.318 0 0 0-1.243-.227A3.778 3.778 0 0 0 4.218 5.01a3.778 3.778 0 0 0 3.767 3.766c.452 0 .866-.075 1.243-.226-1.883-.113-3.39-1.657-3.39-3.54z" fill="#fff"/>
        <path d="m7.947 3.465.226.603h.64l-.527.377.189.64-.528-.377-.527.377.226-.64-.527-.377h.64l.188-.603zM11.977 3.465l.189.603h.64l-.527.377.226.64-.528-.377-.527.377.188-.64-.527-.377h.64l.226-.603zM9.981 1.959l.188.603h.64l-.526.376.226.64-.528-.376-.527.377.188-.64-.527-.377h.64l.226-.603zM11.224 5.8l.188.641h.678l-.527.377.188.64-.527-.414-.527.414.188-.64-.527-.377h.678l.188-.64zM8.7 5.8l.227.641h.64l-.527.377.188.64-.527-.414-.528.414.226-.64-.527-.377h.64l.189-.64z" fill="#fff"/>
    </g>
    <rect x=".25" y=".25" width="19.5" height="19.5" rx="9.75" stroke="#E0E0E0" stroke-width=".5"/>
    <defs>
        <clipPath id="p0mnj4hh3a">
            <rect width="20" height="20" rx="10" fill="#fff"/>
        </clipPath>
    </defs>
</svg>