<svg width="20" height="20" viewBox="0 0 20 20" fill="none" xmlns="http://www.w3.org/2000/svg">
    <g clip-path="url(#x938keztaa)">
        <path d="M10 20c5.523 0 10-4.477 10-10S15.523 0 10 0 0 4.477 0 10s4.477 10 10 10z" fill="#063397"/>
        <path d="m7.094 14.15.227.68h.717l-.566.415.188.642-.566-.415-.566.415.227-.642-.566-.415h.717l.188-.68zM12.906 14.15l.226.68h.68l-.567.415.227.642-.566-.415-.566.415.226-.642L12 14.83h.68l.226-.68zM7.094 4.113l.227.68h.717l-.566.415.188.641-.566-.415-.566.415.227-.641-.566-.415h.717l.188-.68zM12.906 4.113l.226.68h.68l-.567.415.227.641-.566-.415-.566.415.226-.641L12 4.793h.68l.226-.68zM15.019 6.227l.226.679h.717l-.566.415.189.68-.566-.416-.566.415.226-.68-.566-.414h.717l.189-.68zM4.981 6.227l.227.679h.679l-.566.415.226.68-.566-.416L4.415 8l.227-.68-.567-.414h.68l.226-.68zM15.019 12.038l.226.68h.717l-.566.414.189.642-.566-.415-.566.415.226-.642-.566-.415h.717l.189-.679zM4.981 12.038l.227.68h.679l-.566.414.226.642-.566-.415-.566.415.227-.642-.567-.415h.68l.226-.679zM10 3.32l.226.68h.68l-.566.415.226.68L10 4.678l-.566.415.226-.679L9.094 4h.68L10 3.32zM10 14.943l.226.642h.68L10.34 16l.226.68-.566-.416-.566.415L9.66 16l-.566-.415h.68l.226-.642zM15.811 9.132l.227.68h.679l-.566.415.226.641-.566-.415-.566.415.227-.641-.604-.415h.717l.226-.68zM4.226 9.132l.19.68h.716l-.566.415.226.641-.566-.415-.566.415.19-.641-.567-.415H4l.226-.68z" fill="#FECB17"/>
    </g>
    <rect x=".25" y=".25" width="19.5" height="19.5" rx="9.75" stroke="#E0E0E0" stroke-width=".5"/>
    <defs>
        <clipPath id="x938keztaa">
            <rect width="20" height="20" rx="10" fill="#fff"/>
        </clipPath>
    </defs>
</svg>