<svg width="99" height="24" viewBox="0 0 99 24" fill="none" xmlns="http://www.w3.org/2000/svg">
    <rect x="1.5" y=".5" width="80" height="23" rx="3.5" fill="url(#o63serchua)" fill-opacity=".1" stroke="url(#f7ytw7ehdb)"/>
    <path d="M28.66 16.887c-.66 0-1.204-.191-1.633-.575-.43-.383-.644-.973-.644-1.77v-2.485c0-.153-.077-.23-.23-.23h-.345c-.276 0-.483-.084-.621-.252-.138-.17-.207-.384-.207-.644 0-.276.069-.499.207-.667.138-.184.345-.276.62-.276h.346c.153 0 .23-.077.23-.23V8.056c0-.261.092-.483.276-.667a.965.965 0 0 1 .713-.276c.291 0 .529.092.713.276a.83.83 0 0 1 .299.667v1.702c0 .153.077.23.23.23h.85c.262 0 .476.091.645.276a.909.909 0 0 1 .276.667c0 .26-.092.475-.276.644-.169.168-.391.253-.667.253h-.828c-.153 0-.23.076-.23.23v2.162c0 .275.046.467.138.574a.532.532 0 0 0 .39.162c.062 0 .185-.016.369-.046.184-.046.299-.07.345-.07a.81.81 0 0 1 .62.277.952.952 0 0 1 .254.667c0 .199-.061.383-.184.552-.107.168-.284.29-.53.367a4.42 4.42 0 0 1-.574.139c-.184.03-.368.046-.552.046zM21.1 16.888c-1.043 0-1.925-.307-2.646-.92-.705-.63-1.058-1.488-1.058-2.576 0-1.135.345-2.024 1.035-2.668.706-.644 1.587-.966 2.645-.966.752 0 1.373.138 1.863.414.49.276.859.628 1.104 1.058.246.429.368.881.368 1.357 0 .797-.352 1.196-1.058 1.196h-3.818c-.122 0-.184.076-.184.23 0 .352.192.636.575.85.399.2.844.3 1.334.3.307 0 .614-.039.92-.115.307-.092.575-.223.805-.391a.83.83 0 0 1 .483-.161c.23 0 .422.084.575.253a.817.817 0 0 1 .253.598c0 .276-.145.536-.437.782-.276.23-.682.414-1.219.552a6.005 6.005 0 0 1-1.54.207zm1.195-4.44a.38.38 0 0 0 .115-.022c.062-.016.092-.07.092-.161 0-.23-.145-.437-.437-.621-.276-.2-.636-.3-1.08-.3-.476 0-.867.108-1.174.323-.291.199-.437.406-.437.62 0 .108.062.162.184.162h2.737zM11.785 16.887c-.905 0-1.725-.214-2.46-.643a4.778 4.778 0 0 1-1.749-1.748c-.43-.737-.644-1.572-.644-2.508 0-.935.207-1.763.621-2.483a4.727 4.727 0 0 1 1.771-1.748c.752-.43 1.603-.644 2.553-.644.675 0 1.28.084 1.817.253a4.53 4.53 0 0 1 1.518.805c.245.199.368.46.368.782 0 .26-.092.483-.276.667a.909.909 0 0 1-.667.276c-.168 0-.36-.07-.575-.207a4.963 4.963 0 0 0-1.035-.506 3.065 3.065 0 0 0-1.127-.207c-.843 0-1.54.283-2.093.85-.537.553-.805 1.273-.805 2.162 0 .92.26 1.657.782 2.209.521.552 1.188.828 2.001.828.752 0 1.365-.146 1.84-.438.49-.306.736-.697.736-1.172 0-.123-.054-.184-.16-.184h-1.542c-.291 0-.529-.085-.713-.254-.168-.168-.253-.39-.253-.667 0-.26.085-.475.253-.644.184-.168.422-.252.713-.252h2.53c.414 0 .713.1.897.299.184.184.276.498.276.943 0 1.287-.421 2.315-1.265 3.082-.828.766-1.932 1.15-3.312 1.15z" fill="#333"/>
    <g clip-path="url(#m70vfda04c)">
        <path d="M86.44 24H39.02a4.515 4.515 0 0 1-4.52-4.509V4.51A4.515 4.515 0 0 1 39.02 0h47.422c1.147 0 2.25.434 3.088 1.216l8.037 7.49a4.503 4.503 0 0 1 0 6.59l-8.037 7.491a4.535 4.535 0 0 1-3.088 1.216L86.44 24z" fill="url(#8srizhtr5d)"/>
        <path fill-rule="evenodd" clip-rule="evenodd" d="M59.226 16.573c-.29 0-.535-.083-.733-.252a.796.796 0 0 1-.298-.637V7.202c0-.243.094-.452.284-.626.191-.174.438-.263.744-.263.29 0 .526.089.709.263.182.174.273.39.273.65v8.437c0 .26-.093.476-.284.65a1 1 0 0 1-.698.263l.003-.003zm-15.932-.353c.61.235 1.264.353 1.965.353v-.003c1.039 0 1.887-.275 2.55-.822.663-.546.996-1.253.996-2.12 0-.653-.142-1.17-.424-1.55a2.662 2.662 0 0 0-1.053-.854 5.315 5.315 0 0 0-1.27-.4c-.778-.15-1.368-.318-1.77-.5-.406-.182-.608-.434-.608-.752 0-.303.13-.53.39-.683.26-.15.58-.228.96-.228.64 0 1.249.183 1.829.547.166.107.349.16.547.16a.97.97 0 0 0 .674-.262.827.827 0 0 0 .285-.627c0-.289-.132-.538-.39-.752-.655-.562-1.562-.843-2.628-.843-1.065 0-1.927.254-2.582.763-.655.508-.982 1.188-.982 2.04 0 .792.281 1.403.845 1.837.564.433 1.401.741 2.515.923.626.107 1.072.25 1.337.423.266.177.4.423.4.742 0 .38-.145.659-.435.833-.29.174-.647.262-1.028.262s-.767-.07-1.165-.206a2.668 2.668 0 0 1-.982-.57.907.907 0 0 0-.663-.274.98.98 0 0 0-.709.298.933.933 0 0 0-.046 1.32c.352.393.833.71 1.442.945zm7.6-.57c.708.615 1.58.923 2.617.923v-.005a6.12 6.12 0 0 0 1.543-.207c.526-.136.926-.318 1.2-.546.29-.243.435-.503.435-.776a.824.824 0 0 0-.239-.592.77.77 0 0 0-.583-.252.822.822 0 0 0-.48.161 2.401 2.401 0 0 1-.8.378c-.306.083-.61.126-.915.126-.489 0-.926-.102-1.316-.308-.389-.207-.582-.482-.582-.833 0-.153.059-.228.182-.228h3.796c.7 0 1.052-.396 1.052-1.186 0-.468-.12-.918-.365-1.344-.244-.425-.61-.776-1.098-1.05-.488-.272-1.106-.409-1.852-.409-1.052 0-1.924.321-2.617.959-.695.64-1.042 1.563-1.042 2.645s.355 1.928 1.063 2.543zm3.932-3.5a.584.584 0 0 1-.126.021v.003h-2.72c-.12 0-.182-.053-.182-.16 0-.212.148-.42.446-.627.298-.206.681-.308 1.154-.308.44 0 .802.094 1.084.284.282.19.425.399.425.626 0 .091-.027.145-.081.161zm7.841 3.5c.709.615 1.581.923 2.617.923v-.005a6.12 6.12 0 0 0 1.544-.207c.526-.136.926-.318 1.2-.546.29-.243.434-.503.434-.776a.824.824 0 0 0-.238-.592.77.77 0 0 0-.583-.252.822.822 0 0 0-.48.161 2.4 2.4 0 0 1-.8.378c-.306.083-.61.126-.916.126-.488 0-.926-.102-1.315-.308-.39-.207-.583-.482-.583-.833 0-.153.06-.228.183-.228h3.796c.7 0 1.052-.396 1.052-1.186 0-.468-.12-.918-.365-1.344-.244-.425-.61-.776-1.098-1.05-.489-.272-1.106-.409-1.852-.409-1.053 0-1.925.321-2.618.959-.695.64-1.041 1.563-1.041 2.645s.354 1.928 1.063 2.543zm3.933-3.5a.584.584 0 0 1-.127.021v.003h-2.719c-.12 0-.182-.053-.182-.16 0-.212.147-.42.445-.627.298-.206.682-.308 1.154-.308.44 0 .803.094 1.085.284.282.19.424.399.424.626 0 .091-.027.145-.08.161zm6.754 4.423a3.85 3.85 0 0 1-1.796-.434 3.373 3.373 0 0 1-1.337-1.253c-.336-.546-.502-1.2-.502-1.96.016-1.05.357-1.882 1.028-2.498.671-.615 1.538-.923 2.606-.923.411 0 .817.045 1.211.136.395.091.738.26 1.028.5a.864.864 0 0 1 .344.708.977.977 0 0 1-.263.661.834.834 0 0 1-.653.297.802.802 0 0 1-.456-.136 2.884 2.884 0 0 0-.606-.252 2.312 2.312 0 0 0-.583-.07c-.502 0-.915.145-1.235.434-.32.29-.48.678-.48 1.162 0 .562.174.999.526 1.312.351.31.762.469 1.235.469.534 0 1.036-.199 1.508-.592.183-.137.357-.206.526-.206.245 0 .454.099.629.297a1.004 1.004 0 0 1-.057 1.414c-.41.334-.85.573-1.315.717a4.564 4.564 0 0 1-1.361.217h.002zm5.484-.57c.427.38.969.57 1.624.57.182 0 .365-.016.547-.045.183-.03.373-.075.572-.137.244-.075.421-.195.537-.364a.935.935 0 0 0 .172-.546c0-.26-.086-.48-.253-.662a.808.808 0 0 0-.617-.273 2.48 2.48 0 0 0-.344.056 2.284 2.284 0 0 1-.365.057.494.494 0 0 1-.378-.16c-.1-.108-.148-.298-.148-.571v-2.145c0-.15.075-.227.228-.227h.825a.94.94 0 0 0 .673-.252.84.84 0 0 0 .263-.637.92.92 0 0 0-.263-.662.875.875 0 0 0-.652-.273h-.846c-.153 0-.228-.075-.228-.227V7.818a.87.87 0 0 0-.284-.672 1.026 1.026 0 0 0-.72-.262c-.29 0-.526.09-.708.273a.902.902 0 0 0-.274.661v1.687c0 .152-.075.227-.228.227h-.344c-.274 0-.48.089-.617.263-.137.174-.207.399-.207.672 0 .257.07.471.207.637.136.169.343.252.617.252h.344c.15 0 .228.075.228.227v2.463c0 .793.212 1.377.639 1.757z" fill="#fff"/>
        <path d="M95.293 12a4.635 4.635 0 0 0-4.642 4.629 4.634 4.634 0 0 0-4.638-4.63 4.633 4.633 0 0 0 4.638-4.628A4.635 4.635 0 0 0 95.293 12z" fill="#fff"/>
    </g>
    <defs>
        <linearGradient id="o63serchua" x1="-8.251" y1="6.372" x2="25.474" y2="55.211" gradientUnits="userSpaceOnUse">
            <stop stop-color="#EDE68F"/>
            <stop offset=".3" stop-color="#E5AB27"/>
            <stop offset=".64" stop-color="#E1DB88"/>
            <stop offset="1" stop-color="#E6AA27"/>
        </linearGradient>
        <linearGradient id="f7ytw7ehdb" x1="-.733" y1="-1.371" x2="71.101" y2="39.584" gradientUnits="userSpaceOnUse">
            <stop stop-color="#EDE68F"/>
            <stop offset=".3" stop-color="#E5AB27"/>
            <stop offset=".64" stop-color="#E1DB88"/>
            <stop offset="1" stop-color="#E6AA27"/>
        </linearGradient>
        <linearGradient id="8srizhtr5d" x1="33.12" y1="-1.371" x2="95.964" y2="27.157" gradientUnits="userSpaceOnUse">
            <stop stop-color="#EDE68F"/>
            <stop offset=".3" stop-color="#E5AB27"/>
            <stop offset=".64" stop-color="#E1DB88"/>
            <stop offset="1" stop-color="#E6AA27"/>
        </linearGradient>
        <clipPath id="m70vfda04c">
            <path fill="#fff" transform="translate(34.5)" d="M0 0h64.5v24H0z"/>
        </clipPath>
    </defs>
</svg>
