<svg width="20" height="20" viewBox="0 0 20 20" fill="none" xmlns="http://www.w3.org/2000/svg">
    <g clip-path="url(#ms61hvboba)">
        <path d="M19.75 10a10.312 10.312 0 0 1-.55 3.252 9.75 9.75 0 0 1-18.4 0 10.313 10.313 0 0 1-.55-3.251C.257 8.894.443 7.796.8 6.749a9.75 9.75 0 0 1 18.4 0c.357 1.047.543 2.145.55 3.252z" fill="#fff" stroke="#F2F2F2" stroke-width=".5"/>
        <path d="M19.437 6.667H.563a10 10 0 0 1 18.874 0z" fill="#F93"/>
        <path d="M19.437 13.333a10 10 0 0 1-18.874 0h18.874z" fill="#128807"/>
        <path d="M8.509 7.769a2.684 2.684 0 1 1 2.982 4.463A2.684 2.684 0 0 1 8.51 7.769z" fill="#008"/>
        <path d="M10.346 10.303h.044v-.043l.346.26 1.255.649-1.168-.78-.433-.172h.043v-.087l.433.173 1.385.303-1.342-.433-.476-.086h.043V10l.433.087L12.338 10l-1.429-.087-.433.044v-.044h-.043l.476-.086 1.342-.433-1.385.303-.433.173v-.086h-.043l.433-.174 1.168-.779-1.255.65-.346.26v-.044h-.044l.347-.303.952-1.039-1.039.952-.303.347V9.61h-.043l.26-.39.649-1.255-.78 1.213-.172.39h-.087l.173-.434.303-1.385-.433 1.342-.086.433H10l.087-.433L10 7.662l-.086 1.429.043.433h-.043l-.087-.433-.433-1.342.303 1.385.173.433h-.086l-.174-.39-.779-1.212.65 1.256.26.39h-.044v.043l-.303-.347-1.039-.952.952 1.039.347.303H9.61v.043l-.39-.26-1.255-.649 1.213.78.39.173v.086l-.434-.173-1.385-.303 1.342.433.433.086v.044l-.433-.044L7.662 10l1.429.087.433-.087v.087l-.433.086-1.342.433 1.385-.303.433-.173v.086l-.39.174-1.212.779 1.256-.65.39-.26v.044h.043l-.347.303-.952 1.039 1.039-.952.303-.347v.044h.043l-.26.346-.649 1.255.78-1.168.173-.433v.043h.086l-.173.433-.303 1.385.433-1.342.087-.476v.043h.043l-.043.433.086 1.429.087-1.429-.087-.433h.087v-.043l.086.476.433 1.342-.303-1.385-.173-.433h.086v-.043l.174.432.779 1.17-.65-1.256-.26-.346h.044v-.044l.303.347 1.04.952-.953-1.039-.347-.303z" fill="#fff"/>
    </g>
    <defs>
        <clipPath id="ms61hvboba">
            <path fill="#fff" d="M0 0h20v20H0z"/>
        </clipPath>
    </defs>
</svg>
