<svg width="24" height="24" viewBox="0 0 24 24" fill="none" xmlns="http://www.w3.org/2000/svg">
    <path d="M7.024 3C4.817 3 3 4.793 3 7v2l.03 8c.001 2.206 1.789 4 3.994 4h9.983A3.997 3.997 0 0 0 21 17l-.031-8V7c0-2.211-1.759-4-3.962-4H7.024zm0 2c.962 0 8.948-.014 9.983 0 1.095 0 1.965.888 1.965 2v1H4.998V7c0-1.097.917-2 2.027-2zm-2.027 5h13.976l.03 7a2 2 0 0 1-1.996 2H7.024a1.998 1.998 0 0 1-1.996-2l-.031-7z" fill="#6D4EBF"/>
    <path fill-rule="evenodd" clip-rule="evenodd" d="M9 3a1 1 0 0 0-2 0v2a1 1 0 0 0 2 0V3zm8 0a1 1 0 1 0-2 0v2a1 1 0 1 0 2 0V3zM9 13.528C9 12.684 9.739 12 10.65 12c.546 0 1.05.254 1.36.642A1.793 1.793 0 0 1 13.35 12c.911 0 1.65.684 1.65 1.528 0 .884-.544 1.718-1.444 2.482-.307.26-.637.49-.965.695a8.413 8.413 0 0 1-.386.23l-.055.03a.339.339 0 0 1-.3 0l-.054-.03a8.266 8.266 0 0 1-1.352-.924C9.544 15.246 9 14.411 9 13.527z" fill="#6D4EBF"/>
</svg>
