<svg width="24" height="24" viewBox="0 0 24 24" fill="none" xmlns="http://www.w3.org/2000/svg">
    <path fill-rule="evenodd" clip-rule="evenodd" d="M4 12a8 8 0 1 0 16 0 8 8 0 0 0-16 0zm8-10C6.477 2 2 6.477 2 12s4.477 10 10 10 10-4.477 10-10S17.523 2 12 2z" fill="#333"/>
    <path d="m12.562 16.682-1.398-3.906H8.5v-1.092h2.43c1.074 0 1.638-.324 1.77-1.098l-4.188.006v-.774h4.176c-.144-.672-.69-.99-1.596-.99H8.5v-.822h.012L15.43 8v.768h-1.578a1.9 1.9 0 0 1 .564 1.05l1.014-.006v.774h-.996c-.126 1.032-.852 1.632-1.626 1.908-.06.018-.066.084-.042.156l1.602 4.032h-1.806z" fill="#333"/>
</svg>
