<svg width="12" height="12" viewBox="0 0 12 12" fill="none" xmlns="http://www.w3.org/2000/svg">
    <path d="M2.277 8.26h-.766a.512.512 0 0 1 0-1.022h.766a.512.512 0 0 1 0 1.022z" fill="#6D4EBF"/>
    <path fill-rule="evenodd" clip-rule="evenodd" d="M10.133 7.885a1.256 1.256 0 0 0-.055-.285c-.008-.029-.018-.056-.028-.083l-.005-.015-.027-.06a.377.377 0 0 0-.02-.039 1.237 1.237 0 0 0-.075-.13l-.007-.012a1.3 1.3 0 0 0-1.509-.5 1.304 1.304 0 0 0-.864 1.223 1.298 1.298 0 0 0 2.593.053v-.053c0-.033 0-.066-.003-.1zm-1.293.532a.433.433 0 1 1 0-.865.433.433 0 0 1 0 .865zm-2.668-.864a1.296 1.296 0 0 0-2.3-.29v.002a1.648 1.648 0 0 0-.093.164c-.014.027-.026.055-.037.082l-.016.042-.015.046a1.496 1.496 0 0 0-.054.286 1.345 1.345 0 0 0 .013.31 1.297 1.297 0 1 0 2.502-.642zm-1.222.864a.433.433 0 1 1 0-.865.433.433 0 0 1 0 .865z" fill="#6D4EBF"/>
    <path d="M4.314 5.971a.51.51 0 0 1-.511.511H2.018a.512.512 0 0 1 0-1.022h1.785a.51.51 0 0 1 .51.511z" fill="#6D4EBF"/>
    <path fill-rule="evenodd" clip-rule="evenodd" d="M11 6.687c0 .643-.354 1.206-.88 1.503h-.002c.01-.05.015-.1.018-.154v-.052a1.373 1.373 0 0 0-.035-.3 1.344 1.344 0 0 0-.052-.168c0-.004-.003-.01-.004-.014l-.027-.06c-.006-.014-.012-.027-.02-.04a1.241 1.241 0 0 0-.075-.13l-.007-.012a.865.865 0 0 0-.645-1.438v.94l-.02-.007c-.018-.006-.036-.012-.056-.017a1.003 1.003 0 0 0-.208-.041 1.115 1.115 0 0 0-.295 0 1.228 1.228 0 0 0-.097.014l-.046.01a1.354 1.354 0 0 0-.067.017l-.054.017c-.006.003-.014.004-.02.006a1.3 1.3 0 0 0-.792.791l-.007.026-.014.044-.02.074a.886.886 0 0 0-.02.124 1.118 1.118 0 0 0-.011.153l-.001.01.001.015a.786.786 0 0 0 .011.15.615.615 0 0 0 .012.08c.003.014.005.03.009.043a1.179 1.179 0 0 0 .04.146H6.172a1.299 1.299 0 0 0-1.222-1.73c-.449 0-.845.228-1.078.576v.001a1.643 1.643 0 0 0-.09.158l-.004.006c-.014.027-.025.056-.036.083a.341.341 0 0 0-.014.041c-.006.016-.013.03-.018.047a1.289 1.289 0 0 0-.04.596 1.728 1.728 0 0 1-.873-1.345h1.007a.88.88 0 0 0 0-1.758H2.789v-.645c0-.955.773-1.728 1.728-1.728h3.026c.955 0 1.728.773 1.728 1.728v.513c.924 0 1.729.858 1.729 1.727z" fill="#BFA8F7"/>
</svg>
