<svg width="24" height="24" viewBox="0 0 24 24" fill="none" xmlns="http://www.w3.org/2000/svg">
    <path d="M7.499 3a5.5 5.5 0 0 0-5.5 5.5c0 3.184 1.814 6.188 4.813 8.938 1.023.938 2.125 1.761 3.218 2.5.383.258.742.492 1.063.687.196.119.325.205.406.25.302.168.698.168 1 0 .081-.045.21-.131.406-.25.321-.195.68-.429 1.063-.687 1.093-.739 2.195-1.562 3.218-2.5 3-2.75 4.813-5.754 4.813-8.938a5.5 5.5 0 0 0-5.5-5.5c-1.725 0-3.41.94-4.469 2.312C10.997 3.916 9.32 3 7.5 3zm0 2c1.214 0 2.348.616 3 1.562.063.092.563.827.656.969a1 1 0 0 0 1.657.031c.098-.141.619-.873.687-.968.681-.952 1.873-1.594 3-1.594a3.5 3.5 0 0 1 3.5 3.5c0 2.503-1.561 5.03-4.187 7.438a25.864 25.864 0 0 1-2.97 2.343c-.306.208-.58.37-.843.531-.262-.161-.537-.323-.844-.531a25.865 25.865 0 0 1-2.968-2.343C5.56 13.53 3.999 11.003 3.999 8.5a3.5 3.5 0 0 1 3.5-3.5z" fill="#333"/>
</svg>
