<svg width="20" height="20" viewBox="0 0 20 20" fill="none" xmlns="http://www.w3.org/2000/svg">
    <g clip-path="url(#t2vj5nqu1a)">
        <path d="M19.22 13.852a7.36 7.36 0 0 1-.822 1.516H1.558a10.002 10.002 0 0 1-.779-1.516h18.442z" fill="#fff"/>
        <path d="M19.74 12.294a9.394 9.394 0 0 1-.52 1.559H.78a9.393 9.393 0 0 1-.52-1.559h19.48z" fill="#B12233"/>
        <path d="M19.957 10.78c0 .519 0 1.038-.216 1.514H.26a8.657 8.657 0 0 1 0-1.515h19.697z" fill="#fff"/>
        <path d="M18.398 15.368a8.357 8.357 0 0 1-1.082 1.559H2.771a14.894 14.894 0 0 1-1.213-1.559h16.84zM15.325 18.441a9.87 9.87 0 0 1-10.65 0h10.65z" fill="#B12233"/>
        <path d="M17.316 16.927a10.563 10.563 0 0 1-1.861 1.515H4.675c-.69-.432-1.328-.94-1.904-1.515h14.545zM17.316 3.074H2.771a10.866 10.866 0 0 1 1.904-1.515h10.65c.721.424 1.39.933 1.991 1.515z" fill="#fff"/>
        <path d="M15.325 1.558H4.675c.317-.213.65-.4.996-.562h.346A9.524 9.524 0 0 1 10 0a9.827 9.827 0 0 1 5.325 1.558zM18.398 4.632H1.558c.096-.107.197-.208.303-.303l.91-1.256h14.545c.419.477.782 1 1.082 1.559zM19.74 7.706H.26a9.394 9.394 0 0 1 .52-1.559h18.44c.22.504.393 1.025.52 1.559z" fill="#B12233"/>
        <path d="M19.22 6.147H.78v-.303c.097-.24.213-.47.346-.693l.303-.52h16.97c.332.472.608.98.822 1.516zM19.956 9.22H-.002a2.208 2.208 0 0 1 0-.562v-.78h19.48c.347.303.433.78.477 1.342z" fill="#fff"/>
        <path d="M19.999 10c.021.26.021.52 0 .78h-20a4.718 4.718 0 0 1 0-.78 4.719 4.719 0 0 1 0-.78h19.913c.05.258.08.518.087.78z" fill="#B12233"/>
        <path d="M9.998 0v10.78h-10a4.718 4.718 0 0 1 0-.78 4.719 4.719 0 0 1 0-.78 2.208 2.208 0 0 1 0-.562v-.78a9.394 9.394 0 0 1 .52-1.558v-.303c.098-.239.214-.47.346-.692l.303-.52c.212-.184.445-.344.693-.476l.909-1.255a10.866 10.866 0 0 1 1.905-1.516c.317-.213.65-.4.995-.562h.347A9.524 9.524 0 0 1 9.998 0z" fill="#3C3B6D"/>
        <path d="m8.745.52.13.432h.432l-.346.26.13.433-.346-.26-.39.26.13-.433-.346-.26h.432L8.745.52zM6.537 1.558h-.433v-.346L5.67.996h.866l-.13.216.13.346zM8.745 2.684l.13.433h.432l-.346.26.13.433-.346-.26-.39.26.13-.433-.346-.26h.432l.174-.433zM6.19 2.684l.174.433h.433l-.39.26.173.433-.39-.26-.346.26.13-.433-.39-.26h.477l.13-.433zM3.68 2.684l.13.433h.433l-.347.26.13.433-.346-.26-.39.26.173-.433-.39-.26h.434l.173-.433zM8.745 4.805l.13.433h.432l-.346.26.13.476-.346-.303-.39.303.13-.476-.346-.26h.432l.174-.433zM6.19 4.805l.174.433h.433l-.39.26.173.476-.39-.303-.346.303.13-.476-.39-.26h.477l.13-.433zM3.68 4.805l.13.433h.433l-.347.26.13.476-.346-.303-.39.303.173-.476-.39-.26h.434l.173-.433zM1.385 5.498v.433l-.26-.26H.91c.098-.24.214-.47.347-.692h.476l-.347.519zM8.745 6.97l.13.433h.432l-.346.26.13.432-.346-.26-.39.26.13-.433-.346-.26h.432l.174-.432zM6.19 6.97l.174.433h.433l-.39.26.173.432-.39-.26-.346.26.13-.433-.39-.26h.477l.13-.432zM3.68 6.97l.13.433h.433l-.347.26.13.432-.346-.26-.39.26.173-.433-.39-.26h.434l.173-.432zM1.126 6.97l.13.433h.476l-.347.26.13.432-.39-.26-.346.26.13-.433-.346-.26h.433l.13-.432zM8.745 9.134l.13.433h.432l-.346.26.13.433-.346-.26-.39.26.13-.433-.346-.26h.432l.174-.433zM6.19 9.134l.174.433h.433l-.39.26.173.433-.39-.26-.346.26.13-.433-.39-.26h.477l.13-.433zM3.68 9.134l.13.433h.433l-.347.26.13.433L3.68 10l-.39.26.173-.433-.39-.26h.434l.173-.433zM1.126 9.134l.13.433h.476l-.347.26.13.433-.39-.26-.346.26.13-.433-.346-.26h.433l.13-.433zM7.446 8.052l.173.433h.433l-.346.26.13.432-.39-.26-.346.26.13-.433-.347-.26h.433l.13-.432zM4.935 8.052l.13.433h.476l-.39.26.174.432-.39-.26-.39.26.174-.433-.39-.26h.476l.13-.432zM2.424 8.052l.13.433h.433l-.346.26.13.432-.347-.26-.39.26.13-.433-.346-.26h.433l.173-.432zM0 8.658v.433a2.208 2.208 0 0 1 0-.433h.476-.477zM7.446 5.887l.173.433h.433l-.346.26.13.433-.39-.26-.346.26.13-.433-.347-.26h.433l.13-.433zM4.935 5.887l.13.433h.476l-.39.26.174.433-.39-.26-.39.26.174-.433-.39-.26h.476l.13-.433zM2.424 5.887l.13.433h.433l-.346.26.13.433-.347-.26-.39.26.13-.433-.346-.26h.433l.173-.433zM7.446 3.723l.173.433h.433l-.346.303.13.432-.39-.303-.346.303.13-.432-.347-.303h.433l.13-.433zM4.935 3.723l.13.433h.476l-.39.303.174.432-.39-.303-.39.303.174-.432-.39-.303h.476l.13-.433zM2.684 4.632l.087.26-.347-.26v-.044l-.043.044-.346.26.086-.26.043-.173-.303-.26v-.043h.39l.173-.433.13.433h.433l-.346.303.043.173zM7.446 1.602l.173.432h.433l-.346.26.13.433-.39-.26-.346.26.13-.433-.347-.26h.433l.13-.432zM4.935 1.602l.13.432h.476l-.39.26.174.433-.39-.26-.39.26.174-.433-.39-.26h.476l.13-.432z" fill="#fff"/>
    </g>
    <defs>
        <clipPath id="t2vj5nqu1a">
            <path fill="#fff" d="M0 0h20v20H0z"/>
        </clipPath>
    </defs>
</svg>
