<svg width="24" height="24" viewBox="0 0 24 24" fill="none" xmlns="http://www.w3.org/2000/svg">
    <path fill-rule="evenodd" clip-rule="evenodd" d="M12 20a8 8 0 1 0 0-16 8 8 0 0 0 0 16zm0 2c5.523 0 10-4.477 10-10S17.523 2 12 2 2 6.477 2 12s4.477 10 10 10z" fill="#333"/>
    <path fill-rule="evenodd" clip-rule="evenodd" d="M14 10a2 2 0 1 1-4 0 2 2 0 0 1 4 0zm2 0a4 4 0 1 1-8 0 4 4 0 0 1 8 0zm-5.117 7a3 3 0 0 0-2.817 1.968 8.032 8.032 0 0 1-1.642-1.231A5 5 0 0 1 10.883 15h2.234a5 5 0 0 1 4.458 2.737 8.028 8.028 0 0 1-1.642 1.23A3 3 0 0 0 13.117 17h-2.234z" fill="#333"/>
</svg>
