<svg width="25" height="18" viewBox="0 0 25 18" fill="none" xmlns="http://www.w3.org/2000/svg">
<path d="M24.736 3.208C23.072 3.63467 21.792 4.27467 20.896 5.128C20.0427 5.93866 19.6587 6.92 19.744 8.072C20.2987 8.75466 20.9813 9.30933 21.792 9.736C22.6453 10.12 23.5413 10.4613 24.48 10.76C24.6933 11.528 24.7147 12.3173 24.544 13.128C24.416 13.896 24.1387 14.6213 23.712 15.304C23.2853 15.944 22.7733 16.4987 22.176 16.968C21.6213 17.4373 21.0453 17.7147 20.448 17.8C19.552 17.7573 18.6773 17.5867 17.824 17.288C16.9707 16.9467 16.224 16.4773 15.584 15.88C14.944 15.2827 14.4107 14.5787 13.984 13.768C13.6 12.9147 13.408 11.9547 13.408 10.888C13.408 9.608 13.664 8.392 14.176 7.24C14.688 6.04533 15.392 4.97866 16.288 4.04C17.2267 3.10133 18.336 2.312 19.616 1.672C20.896 0.989332 22.304 0.519998 23.84 0.263996L24.736 3.208ZM11.616 3.208C9.952 3.63467 8.672 4.27467 7.776 5.128C6.92267 5.93866 6.53867 6.92 6.624 8.072C7.17867 8.75466 7.86133 9.30933 8.672 9.736C9.52533 10.12 10.4213 10.4613 11.36 10.76C11.5733 11.528 11.5947 12.3173 11.424 13.128C11.296 13.896 11.0187 14.6213 10.592 15.304C10.1653 15.944 9.65333 16.4987 9.056 16.968C8.50133 17.4373 7.92533 17.7147 7.328 17.8C6.432 17.7573 5.55733 17.5867 4.704 17.288C3.85067 16.9467 3.104 16.4773 2.464 15.88C1.824 15.2827 1.29067 14.5787 0.864 13.768C0.48 12.9147 0.288 11.9547 0.288 10.888C0.288 9.608 0.544 8.392 1.056 7.24C1.568 6.04533 2.272 4.97866 3.168 4.04C4.10667 3.10133 5.216 2.312 6.496 1.672C7.776 0.989332 9.184 0.519998 10.72 0.263996L11.616 3.208Z" fill="#49586E"/>
</svg>
