<svg width="26" height="19" viewBox="0 0 26 19" fill="none" xmlns="http://www.w3.org/2000/svg">
<path d="M14.088 15.56C15.752 15.1333 17.0533 14.3867 17.992 13.32C18.9307 12.2533 19.3573 11.144 19.272 9.992C18.7173 9.30933 18.0133 8.776 17.16 8.392C16.3493 7.96533 15.4747 7.60266 14.536 7.304C14.3227 6.536 14.28 5.768 14.408 5C14.5787 4.18933 14.8773 3.464 15.304 2.824C15.7307 2.14133 16.2213 1.56533 16.776 1.096C17.3733 0.626664 17.9707 0.349331 18.568 0.263996C19.4213 0.306665 20.2747 0.498665 21.128 0.839996C21.9813 1.13866 22.728 1.58666 23.368 2.184C24.0507 2.73867 24.584 3.464 24.968 4.36C25.3947 5.21333 25.608 6.23733 25.608 7.432C25.608 8.584 25.352 9.75733 24.84 10.952C24.328 12.1467 23.6027 13.256 22.664 14.28C21.768 15.304 20.68 16.2 19.4 16.968C18.12 17.6933 16.7333 18.2053 15.24 18.504L14.088 15.56ZM0.968 15.56C2.632 15.1333 3.93333 14.3867 4.872 13.32C5.81067 12.2533 6.23733 11.144 6.152 9.992C5.59733 9.30933 4.89333 8.776 4.04 8.392C3.22933 7.96533 2.35467 7.60266 1.416 7.304C1.20267 6.536 1.16 5.768 1.288 5C1.45867 4.18933 1.75733 3.464 2.184 2.824C2.61067 2.14133 3.10133 1.56533 3.656 1.096C4.25333 0.626664 4.85067 0.349331 5.448 0.263996C6.30133 0.306665 7.15467 0.498665 8.008 0.839996C8.86133 1.13866 9.608 1.58666 10.248 2.184C10.9307 2.73867 11.464 3.464 11.848 4.36C12.2747 5.21333 12.488 6.23733 12.488 7.432C12.488 8.584 12.232 9.75733 11.72 10.952C11.208 12.1467 10.4827 13.256 9.544 14.28C8.648 15.304 7.56 16.2 6.28 16.968C5 17.6933 3.61333 18.2053 2.12 18.504L0.968 15.56Z" fill="#49586E"/>
</svg>
